<?xml version="1.0" encoding="UTF-8"?>
<svg width="240px" height="160px" viewBox="0 0 24 16" version="1.1" xmlns="http://www.w3.org/2000/svg" xmlns:xlink="http://www.w3.org/1999/xlink">
    <g id="319" stroke="none" stroke-width="1" fill="none" fill-rule="evenodd">
        <g id="New-Icons" transform="translate(-320.000000, -280.000000)" fill-rule="nonzero">
            <g id="Card-Brands" transform="translate(40.000000, 200.000000)">
                <g id="Color" transform="translate(0.000000, 80.000000)">
                    <g id="Diners-Club" transform="translate(280.000000, 0.000000)">
                        <path d="M10.0021142,2.05179033 L10.0021142,2.03579033 L14.0021142,2.03579033 L14.0021142,2.05179033 C17.1375481,2.28122918 19.5642283,4.89197286 19.5642283,8.03579033 C19.5642283,11.1796078 17.1375481,13.7903515 14.0021142,14.0197903 L14.0021142,14.0357903 L10.0021142,14.0357903 L10.0021142,14.0197903 C6.86668021,13.7903515 4.44,11.1796078 4.44,8.03579033 C4.44,4.89197286 6.86668021,2.28122918 10.0021142,2.05179033 Z" id="shape" fill="#0165AC"></path>
                        <path d="M11.6021142,11.4277903 C13.0374002,10.9175027 13.9961556,9.55908923 13.9961556,8.03579033 C13.9961556,6.51249143 13.0374002,5.15407792 11.6021142,4.64379033 L11.6021142,11.4277903 L11.6021142,11.4277903 Z M9.20211417,4.64379033 C7.76682809,5.15407792 6.80807271,6.51249143 6.80807271,8.03579033 C6.80807271,9.55908923 7.76682809,10.9175027 9.20211417,11.4277903 L9.20211417,4.64379033 L9.20211417,4.64379033 Z M10.4021142,13.2357903 C7.53023347,13.2357903 5.20211417,10.907671 5.20211417,8.03579033 C5.20211417,5.16390963 7.53023347,2.83579033 10.4021142,2.83579033 C13.2739949,2.83579033 15.6021142,5.16390963 15.6021142,8.03579033 C15.6021142,10.907671 13.2739949,13.2357903 10.4021142,13.2357903 Z" id="shape" fill="#FFFFFF"></path>
                    </g>
                </g>
            </g>
        </g>
    </g>
</svg>
