<svg version="1.1" xmlns="http://www.w3.org/2000/svg" xmlns:xlink="http://www.w3.org/1999/xlink" x="0px" y="0px" width="320px" height="320px" viewBox="-3.5 -3.5 32 32" enable-background="new -3.5 -3.5 32 32" xml:space="preserve" preserveAspectRatio="none">
<path d="M23.5,21.5h-22c-1.103,0-2-0.897-2-2v-14c0-1.103,0.897-2,2-2h22c1.103,0,2,0.897,2,2v14C25.5,20.603,24.603,21.5,23.5,21.5
	z M0.5,11.5v8c0,0.552,0.449,1,1,1h22c0.552,0,1-0.448,1-1v-8H0.5z M0.5,10.5h24v-3h-24V10.5z M0.5,6.5h24v-1c0-0.551-0.448-1-1-1
	h-22c-0.551,0-1,0.449-1,1V6.5z M16,17.5H9c-0.276,0-0.5-0.224-0.5-0.5s0.224-0.5,0.5-0.5h7c0.276,0,0.5,0.224,0.5,0.5
	S16.276,17.5,16,17.5z M18,15.5H7c-0.276,0-0.5-0.224-0.5-0.5s0.224-0.5,0.5-0.5h11c0.276,0,0.5,0.224,0.5,0.5S18.276,15.5,18,15.5z
	" fill="#1db87f"></path>
</svg>
