<svg id="Layer_1" data-name="Layer 1" xmlns="http://www.w3.org/2000/svg" viewBox="0 0 3501.82 500"><defs><style>.cls-1{fill:#0f1112;}.cls-2{fill:#6eb880;}</style></defs><path class="cls-1" d="M767.37,372.45V119H862q39.51,0,69.73,13.49a104.29,104.29,0,0,1,47.5,41.8q17.28,28.31,17.29,72.77,0,41.81-17.48,69.73a108.29,108.29,0,0,1-47.88,41.8q-30.4,13.88-69.54,13.87Zm47.88-42.56h42.18q42.93,0,65.93-21.09t23-61q0-39.9-21.09-63.08t-67.83-23.18H815.25Z" transform="translate(0 0)"/><path class="cls-1" d="M1141.67,372.45l-1.14-16.72q-7.23,8.75-22.23,15.58a78.39,78.39,0,0,1-32.87,6.84,72.56,72.56,0,0,1-28.69-6.08,55.37,55.37,0,0,1-23.56-19q-9.33-12.92-9.31-32.68,0-30.4,21.66-47.12t56.62-16.72q6.45,0,15.38.38t23,1.14v-4.18q0-13.3-10.64-20.9t-27.74-7.6q-19,0-30.41,4.94A135.2,135.2,0,0,0,1051.61,241l-20.52-30.4a127.37,127.37,0,0,1,17.1-10.45,105.8,105.8,0,0,1,24.32-8.55q14.43-3.42,35.72-3.42,34.2,0,54.72,18t20.52,46.55v119.7Zm-1.14-63.08V291.89q-8.74-.76-19-1.14t-15.58-.38q-21.66,0-30.4,8.55t-8.74,19.57q0,11.4,8.17,17.86t24.13,6.46a45.51,45.51,0,0,0,35.34-16.72A26.24,26.24,0,0,0,1140.53,309.37Z" transform="translate(0 0)"/><path class="cls-1" d="M1218,350.79l27-29.26a66.8,66.8,0,0,0,21.09,13.87q12.72,5.5,29.07,5.51,14.43,0,23.18-4t8.74-12.35a14.38,14.38,0,0,0-3.24-9.31q-3.22-4-12.72-8t-29.27-8.55a153.14,153.14,0,0,1-25.08-9.12,63,63,0,0,1-22.6-17.29q-9.33-11.2-9.32-28.31,0-17.87,10.83-30.4a68,68,0,0,1,27.74-19,96.57,96.57,0,0,1,34.78-6.46q23.55,0,40.27,4.94a90.44,90.44,0,0,1,29.65,14.82L1345,239.45q-7.21-5.32-19.18-9.69t-27.55-4.37q-15.6,0-22,4.75c-4.32,3.17-6.46,7-6.46,11.59q0,8.36,10.44,13.11t32.49,10.07q27,6.07,43.13,18.81T1372,322.29a45.58,45.58,0,0,1-10.46,29.83q-10.46,12.74-27.74,19.57a103,103,0,0,1-38.18,6.84q-24.72,0-45-7T1218,350.79Z" transform="translate(0 0)"/><path class="cls-1" d="M1408.42,372.45V119h44.08v93.48q6.84-7.6,20.14-14.82t33.44-7.22q33.06,0,50.73,20.52t17.67,53.2v108.3h-44.84V264.53q0-16.72-9.31-26.22t-24.13-9.5q-18.62,0-30.78,13.68t-12.16,33.44v96.52Z" transform="translate(0 0)"/><path class="cls-1" d="M1622.36,372.45V119H1717q39.52,0,69.73,13.49a104.29,104.29,0,0,1,47.5,41.8q17.3,28.31,17.29,72.77,0,41.81-17.48,69.73a108.18,108.18,0,0,1-47.88,41.8q-30.41,13.88-69.54,13.87Zm47.88-42.56h42.18q42.94,0,65.93-21.09t23-61q0-39.9-21.09-63.08t-67.83-23.18h-42.18Z" transform="translate(0 0)"/><path class="cls-1" d="M1881.9,283.15a95.34,95.34,0,0,1,12.16-47.5,92.59,92.59,0,0,1,33.63-34.58q21.46-12.91,50-12.92t50,12.92a92.74,92.74,0,0,1,33.63,34.58,98.85,98.85,0,0,1,0,95,94.22,94.22,0,0,1-33.63,34.77q-21.48,13.11-50,13.11t-50-13.11a94.06,94.06,0,0,1-33.63-34.77A95.34,95.34,0,0,1,1881.9,283.15Zm95.76,56.62q17.1,0,28.31-8.74a53.7,53.7,0,0,0,16.72-21.85,66.85,66.85,0,0,0,5.51-26,65.47,65.47,0,0,0-5.51-25.84A54,54,0,0,0,2006,235.65q-11.22-8.75-28.31-8.74t-28.31,8.74a53.82,53.82,0,0,0-16.72,21.66,65.3,65.3,0,0,0-5.51,25.84,66.67,66.67,0,0,0,5.51,26A53.53,53.53,0,0,0,1949.35,331Q1960.55,339.78,1977.66,339.77Z" transform="translate(0 0)"/><path class="cls-1" d="M2109.14,372.45V194.23h42.94l1.14,20.14q6.84-7.6,19.76-15.77t33.82-8.17q33.06,0,50.73,19.95t17.67,53.77v108.3h-44.84V264.53q0-16.72-9.31-26.22t-24.13-9.5q-18.63,0-30.78,13.68T2154,275.93v96.52Z" transform="translate(0 0)"/><path class="cls-1" d="M2424.91,372.45l-1.14-16.72q-7.21,8.75-22.23,15.58a78.33,78.33,0,0,1-32.87,6.84,72.6,72.6,0,0,1-28.69-6.08,55.43,55.43,0,0,1-23.56-19q-9.32-12.92-9.31-32.68,0-30.4,21.66-47.12t56.62-16.72q6.46,0,15.39.38t23,1.14v-4.18q0-13.3-10.64-20.9t-27.74-7.6q-19,0-30.4,4.94A135.33,135.33,0,0,0,2334.85,241l-20.52-30.4a128.65,128.65,0,0,1,17.1-10.45,106.15,106.15,0,0,1,24.32-8.55q14.45-3.42,35.72-3.42,34.2,0,54.72,18t20.52,46.55v119.7Zm-1.14-63.08V291.89q-8.74-.76-19-1.14t-15.58-.38q-21.66,0-30.4,8.55t-8.74,19.57q0,11.4,8.17,17.86t24.13,6.46a44.77,44.77,0,0,0,20-4.56,44.28,44.28,0,0,0,15.39-12.16A26.19,26.19,0,0,0,2423.77,309.37Z" transform="translate(0 0)"/><path class="cls-1" d="M2525.23,311.65V230.71h-30.4V194.23h30.4V136.47h44.84v57.76H2618v36.48h-47.88v77.9q0,15.19,5.13,23.37t16.53,8.17q10.64,0,16.91-3a77.06,77.06,0,0,0,12-7.22l19,27.74q-13.31,10.64-26.22,15.58a80.38,80.38,0,0,1-28.88,4.94q-32.69,0-46-18.24T2525.23,311.65Z" transform="translate(0 0)"/><path class="cls-1" d="M2806.05,319.25l24.32,27.36-6.27,6.27a80.2,80.2,0,0,1-14.82,11q-9.69,5.89-24.7,10.26t-35.91,4.37q-28.5,0-49.59-12.35a85.94,85.94,0,0,1-32.87-34.39q-11.79-22-11.78-50.54,0-26.22,11.59-47.31a87.9,87.9,0,0,1,31.92-33.44q20.32-12.34,46.93-12.35,24.69,0,41.42,8.74a74.57,74.57,0,0,1,27,23.37,98.1,98.1,0,0,1,14.82,32.87,152.94,152.94,0,0,1,4.56,37.24v6.46h-133a36.18,36.18,0,0,0,7.41,22.61,51.46,51.46,0,0,0,18.81,15.2,52.78,52.78,0,0,0,23.18,5.51q17.47,0,28.88-4t18.24-8.93A86,86,0,0,0,2806.05,319.25Zm-106.78-54.72h87.4a38.14,38.14,0,0,0-4.75-18,39.83,39.83,0,0,0-13.87-14.82q-9.12-5.9-23.18-5.89-14.82,0-24.89,5.89a42.21,42.21,0,0,0-15.39,14.82A34.9,34.9,0,0,0,2699.27,264.53Z" transform="translate(0 0)"/><path class="cls-1" d="M2869.89,372.45V320h54.34v52.44Z" transform="translate(0 0)"/><path class="cls-1" d="M2962.61,283.15a95.34,95.34,0,0,1,12.16-47.5,92.59,92.59,0,0,1,33.63-34.58q21.45-12.91,50-12.92t50,12.92A92.74,92.74,0,0,1,3142,235.65a98.85,98.85,0,0,1,0,95,94.22,94.22,0,0,1-33.63,34.77q-21.48,13.11-50,13.11t-50-13.11a94.06,94.06,0,0,1-33.63-34.77A95.34,95.34,0,0,1,2962.61,283.15Zm95.76,56.62q17.1,0,28.31-8.74a53.7,53.7,0,0,0,16.72-21.85,66.85,66.85,0,0,0,5.51-26,65.47,65.47,0,0,0-5.51-25.84,54,54,0,0,0-16.72-21.66q-11.22-8.75-28.31-8.74t-28.31,8.74a53.73,53.73,0,0,0-16.72,21.66,65.3,65.3,0,0,0-5.51,25.84,66.67,66.67,0,0,0,5.51,26A53.45,53.45,0,0,0,3030.06,331Q3041.27,339.78,3058.37,339.77Z" transform="translate(0 0)"/><path class="cls-1" d="M3189.84,372.45V194.23h42.94l1.14,22.42a77.7,77.7,0,0,1,11.21-11.21,67.52,67.52,0,0,1,17.48-10.26q10.45-4.37,24.89-4.37a79.16,79.16,0,0,1,11.59.76,55.13,55.13,0,0,1,10.45,2.66l-9.12,42.18A58.1,58.1,0,0,0,3279.9,233q-18.62,0-31.92,11.78t-13.3,31.54v96.14Z" transform="translate(0 0)"/><path class="cls-1" d="M3343.74,434.39l20.14-33.06Q3384,415,3415.94,415q17.47,0,29.26-10.83T3457,374.73V355.35A96.56,96.56,0,0,1,3437,367.51q-10.83,4.94-28.69,4.94-25.47,0-43.89-11.21a73.33,73.33,0,0,1-28.12-30.78q-9.69-19.57-9.69-44.65,0-26.6,12.35-48.26a90.31,90.31,0,0,1,35-34.39q22.61-12.74,53.39-12.73a227.93,227.93,0,0,1,42.94,3.8q19.75,3.79,31.54,8V375.49q0,24.69-11,42.18a69.72,69.72,0,0,1-30.21,26.41q-19.2,8.93-43.89,8.93-27.75,0-44.08-4.94A101.72,101.72,0,0,1,3343.74,434.39ZM3457,296.83V233a63.43,63.43,0,0,0-11-2.85,120.55,120.55,0,0,0-17.86-.95q-18.24,0-30.59,7.79a51.63,51.63,0,0,0-18.81,20.33,58.82,58.82,0,0,0-6.46,27.36q0,20.52,10.26,34.58t33.06,14.06Q3457,333.31,3457,296.83Z" transform="translate(0 0)"/><path class="cls-2" d="M317,0h-1.31l-1.17,0H282.17a19.89,19.89,0,0,0-14,5.82L248.41,25.57h0l-43,43a18.44,18.44,0,0,0,0,26h0A18.31,18.31,0,0,0,218.1,100v0h96.24c82.5,0,150,67.5,150,150h0c0,82.5-67.5,150-150,150h-31.8c-1-.06-2-.1-3-.1H235.3L349.85,285.36a50.22,50.22,0,0,0,0-70.76h0A49.82,49.82,0,0,0,314.49,200H82.15a19.93,19.93,0,0,0-14,5.82L48.39,225.57h0l-43,43A18.37,18.37,0,0,0,18.07,300v0H193.78L79.24,414.55l0,0A49.81,49.81,0,0,0,64.51,449.9h0a49.85,49.85,0,0,0,14.71,35.34l0,0h0l.56.53c.39.38.78.76,1.18,1.12s.76.67,1.15,1c.23.2.46.41.7.6s.77.61,1.16.91l.8.62c.33.25.66.48,1,.71l1.08.76.7.44c.5.32,1,.64,1.51.95l.26.15a49.67,49.67,0,0,0,25.17,6.85h36.08v.1h163.9c137.5,0,250-112.5,250-250h0C564.49,113.33,453.34,1.38,317,0Z" transform="translate(0 0)"/></svg>