<svg id="Layer_1" data-name="Layer 1" xmlns="http://www.w3.org/2000/svg" viewBox="0 0 564.49 500"><defs><style>.cls-1{fill:#6eb880;}</style></defs><path class="cls-1" d="M536,249.83v0h-34.8a19.94,19.94,0,0,0-14,5.83L467.4,275.36h0l-43,43a18.46,18.46,0,0,0,0,26h0a18.29,18.29,0,0,0,12.7,5.35v0h96.25c82.5,0,150,67.5,150,150h0c0,82.5-67.5,150-150,150h-31.8c-1-.06-2-.1-3-.1h-44.2L568.84,535.15a50.22,50.22,0,0,0,0-70.76h0a49.87,49.87,0,0,0-35.36-14.58H301.14a19.94,19.94,0,0,0-14,5.83l-19.73,19.73h0l-43,43a18.36,18.36,0,0,0,12.7,31.37v0H412.77L298.23,664.34l0,0A49.84,49.84,0,0,0,283.5,699.7h0A49.81,49.81,0,0,0,298.21,735l0,0h0l.55.53,1.19,1.13c.38.34.76.67,1.15,1l.7.61c.38.31.77.61,1.16.91l.8.62,1,.71c.36.25.72.51,1.09.75l.69.45c.51.32,1,.64,1.52.94l.26.15a49.55,49.55,0,0,0,25.17,6.86h36.08v.1h163.9c137.5,0,250-112.5,250-250h0C783.48,363.13,672.33,251.17,536,249.83Z" transform="translate(-218.99 -249.8)"/></svg>