<svg id="Layer_1" data-name="Layer 1" xmlns="http://www.w3.org/2000/svg" viewBox="0 0 2734.45 334.02"><defs><style>.cls-1{fill:#0f1112;}</style></defs><path class="cls-1" d="M0,253.46V0H94.62q39.51,0,69.73,13.49a104.34,104.34,0,0,1,47.5,41.8q17.29,28.32,17.29,72.77,0,41.81-17.48,69.73a108.29,108.29,0,0,1-47.88,41.8q-30.4,13.88-69.54,13.87ZM47.88,210.9H90.06q42.94,0,65.93-21.09t23-61q0-39.9-21.09-63.08T90.06,42.56H47.88Z"/><path class="cls-1" d="M374.3,253.46l-1.14-16.72q-7.23,8.74-22.23,15.58a78.36,78.36,0,0,1-32.87,6.84,72.6,72.6,0,0,1-28.69-6.08,55.3,55.3,0,0,1-23.56-19q-9.31-12.92-9.31-32.68,0-30.4,21.66-47.12t56.62-16.72q6.45,0,15.39.38t23,1.14V134.9q0-13.29-10.64-20.9t-27.74-7.6q-19,0-30.4,4.94A134.84,134.84,0,0,0,284.24,122l-20.52-30.4a129.71,129.71,0,0,1,17.1-10.45,106,106,0,0,1,24.32-8.55q14.43-3.42,35.72-3.42,34.2,0,54.72,18t20.52,46.55v119.7Zm-1.14-63.08V172.9q-8.75-.75-19-1.14t-15.58-.38q-21.66,0-30.4,8.55t-8.74,19.57q0,11.4,8.17,17.86t24.13,6.46a45.51,45.51,0,0,0,35.34-16.72A26.17,26.17,0,0,0,373.16,190.38Z"/><path class="cls-1" d="M450.68,231.8l27-29.26a66.85,66.85,0,0,0,21.09,13.87q12.72,5.51,29.07,5.51,14.43,0,23.18-4t8.74-12.35a14.39,14.39,0,0,0-3.23-9.31q-3.24-4-12.73-8t-29.26-8.55a152.48,152.48,0,0,1-25.08-9.12,63.06,63.06,0,0,1-22.61-17.29q-9.31-11.21-9.31-28.31,0-17.85,10.83-30.4a67.89,67.89,0,0,1,27.74-19,96.77,96.77,0,0,1,34.77-6.46q23.55,0,40.28,4.94a90.68,90.68,0,0,1,29.64,14.82L577.6,120.46q-7.23-5.31-19.19-9.69t-27.55-4.37q-15.58,0-22,4.75t-6.46,11.59q0,8.37,10.45,13.11t32.49,10.07q27,6.08,43.13,18.81t16.15,38.57a45.61,45.61,0,0,1-10.45,29.83q-10.46,12.74-27.74,19.57a103,103,0,0,1-38.19,6.84q-24.71,0-45-7T450.68,231.8Z"/><path class="cls-1" d="M641.06,253.46V0h44.08V93.48q6.84-7.59,20.14-14.82t33.44-7.22q33.06,0,50.73,20.52t17.67,53.2v108.3H762.28V145.54q0-16.71-9.31-26.22t-24.13-9.5q-18.63,0-30.78,13.68T685.9,156.94v96.52Z"/><path class="cls-1" d="M855,253.46V0h94.62q39.52,0,69.73,13.49a104.34,104.34,0,0,1,47.5,41.8q17.29,28.32,17.29,72.77,0,41.81-17.48,69.73a108.18,108.18,0,0,1-47.88,41.8q-30.4,13.88-69.54,13.87Zm47.89-42.56h42.17q42.94,0,65.93-21.09t23-61q0-39.9-21.09-63.08T945.05,42.56H902.88Z"/><path class="cls-1" d="M1114.53,164.16a95.34,95.34,0,0,1,12.16-47.5,92.81,92.81,0,0,1,33.63-34.58q21.47-12.92,50-12.92t50,12.92a92.81,92.81,0,0,1,33.63,34.58,95.34,95.34,0,0,1,12.16,47.5,95.34,95.34,0,0,1-12.16,47.5,94.22,94.22,0,0,1-33.63,34.77q-21.46,13.11-50,13.11t-50-13.11a94.22,94.22,0,0,1-33.63-34.77A95.34,95.34,0,0,1,1114.53,164.16Zm95.76,56.62q17.1,0,28.31-8.74a53.62,53.62,0,0,0,16.72-21.85,66.81,66.81,0,0,0,5.51-26,65.47,65.47,0,0,0-5.51-25.84,53.91,53.91,0,0,0-16.72-21.66q-11.2-8.75-28.31-8.74T1182,116.66a53.91,53.91,0,0,0-16.72,21.66,65.47,65.47,0,0,0-5.51,25.84,66.81,66.81,0,0,0,5.51,26A53.62,53.62,0,0,0,1182,212Q1193.19,220.79,1210.29,220.78Z"/><path class="cls-1" d="M1341.77,253.46V75.24h42.94l1.14,20.14q6.84-7.59,19.76-15.77t33.82-8.17q33.06,0,50.73,20t17.67,53.77v108.3H1463V145.54q0-16.71-9.31-26.22t-24.13-9.5q-18.63,0-30.78,13.68t-12.16,33.44v96.52Z"/><path class="cls-1" d="M1657.55,253.46l-1.14-16.72q-7.23,8.74-22.23,15.58a78.36,78.36,0,0,1-32.87,6.84,72.6,72.6,0,0,1-28.69-6.08,55.3,55.3,0,0,1-23.56-19q-9.32-12.92-9.31-32.68,0-30.4,21.66-47.12T1618,137.56q6.45,0,15.39.38t23,1.14V134.9q0-13.29-10.64-20.9T1618,106.4q-19,0-30.4,4.94A134.84,134.84,0,0,0,1567.49,122L1547,91.58a129.71,129.71,0,0,1,17.1-10.45,106,106,0,0,1,24.32-8.55q14.43-3.42,35.72-3.42,34.2,0,54.72,18t20.52,46.55v119.7Zm-1.14-63.08V172.9q-8.75-.75-19-1.14t-15.58-.38q-21.66,0-30.4,8.55t-8.74,19.57q0,11.4,8.17,17.86t24.13,6.46a45.51,45.51,0,0,0,35.34-16.72A26.17,26.17,0,0,0,1656.41,190.38Z"/><path class="cls-1" d="M1757.87,192.66V111.72h-30.4V75.24h30.4V17.48h44.84V75.24h47.88v36.48h-47.88v77.9q0,15.19,5.13,23.37t16.53,8.17q10.64,0,16.91-3a77.06,77.06,0,0,0,12-7.22l19,27.74q-13.3,10.65-26.22,15.58a80.42,80.42,0,0,1-28.88,4.94q-32.69,0-46-18.24T1757.87,192.66Z"/><path class="cls-1" d="M2038.68,200.26,2063,227.62l-6.27,6.27a79.75,79.75,0,0,1-14.82,11q-9.69,5.9-24.7,10.26t-35.91,4.37q-28.5,0-49.59-12.35a85.87,85.87,0,0,1-32.87-34.39q-11.77-22-11.78-50.54,0-26.22,11.59-47.31a88.12,88.12,0,0,1,31.92-33.44q20.33-12.35,46.93-12.35,24.7,0,41.42,8.74a74.48,74.48,0,0,1,27,23.37,98.19,98.19,0,0,1,14.82,32.87,152.94,152.94,0,0,1,4.56,37.24v6.46h-133a36.16,36.16,0,0,0,7.41,22.61,51.46,51.46,0,0,0,18.81,15.2,52.68,52.68,0,0,0,23.18,5.51q17.47,0,28.88-4t18.24-8.93A86,86,0,0,0,2038.68,200.26ZM1931.9,145.54h87.4a38.06,38.06,0,0,0-4.75-18,39.83,39.83,0,0,0-13.87-14.82q-9.12-5.88-23.18-5.89-14.82,0-24.89,5.89a42.37,42.37,0,0,0-15.39,14.82A34.92,34.92,0,0,0,1931.9,145.54Z"/><path class="cls-1" d="M2102.52,253.46V201h54.34v52.44Z"/><path class="cls-1" d="M2195.24,164.16a95.34,95.34,0,0,1,12.16-47.5A92.66,92.66,0,0,1,2241,82.08q21.46-12.92,50-12.92t50,12.92a92.81,92.81,0,0,1,33.63,34.58,95.44,95.44,0,0,1,12.16,47.5,95.44,95.44,0,0,1-12.16,47.5A94.22,94.22,0,0,1,2341,246.43q-21.48,13.11-50,13.11t-50-13.11a94.06,94.06,0,0,1-33.63-34.77A95.34,95.34,0,0,1,2195.24,164.16ZM2291,220.78q17.1,0,28.31-8.74A53.7,53.7,0,0,0,2336,190.19a66.81,66.81,0,0,0,5.51-26,65.47,65.47,0,0,0-5.51-25.84,54,54,0,0,0-16.72-21.66q-11.22-8.75-28.31-8.74t-28.31,8.74A53.82,53.82,0,0,0,2246,138.32a65.3,65.3,0,0,0-5.51,25.84,66.63,66.63,0,0,0,5.51,26A53.53,53.53,0,0,0,2262.69,212Q2273.89,220.79,2291,220.78Z"/><path class="cls-1" d="M2422.47,253.46V75.24h43l1.13,22.42a78.2,78.2,0,0,1,11.21-11.21,68.09,68.09,0,0,1,17.48-10.26q10.46-4.36,24.89-4.37a80.57,80.57,0,0,1,11.59.76,55.13,55.13,0,0,1,10.45,2.66l-9.12,42.18a58.1,58.1,0,0,0-20.52-3.42q-18.62,0-31.92,11.78t-13.3,31.54v96.14Z"/><path class="cls-1" d="M2576.37,315.4l20.14-33.06Q2616.64,296,2648.57,296q17.47,0,29.26-10.83t11.78-29.45V236.36a96.56,96.56,0,0,1-20,12.16q-10.83,4.95-28.69,4.94-25.47,0-43.89-11.21A73.33,73.33,0,0,1,2569,211.47q-9.69-19.58-9.69-44.65,0-26.59,12.35-48.26a90.31,90.31,0,0,1,35-34.39q22.61-12.73,53.39-12.73a227.93,227.93,0,0,1,42.94,3.8q19.76,3.81,31.54,8V256.5q0,24.69-11,42.18a69.72,69.72,0,0,1-30.21,26.41Q2674,334,2649.33,334q-27.75,0-44.08-4.94A101.72,101.72,0,0,1,2576.37,315.4Zm113.24-137.56V114a65.28,65.28,0,0,0-11-2.85,120.55,120.55,0,0,0-17.86-1q-18.24,0-30.59,7.79a51.63,51.63,0,0,0-18.81,20.33,58.82,58.82,0,0,0-6.46,27.36q0,20.52,10.26,34.58t33.06,14.06Q2689.61,214.32,2689.61,177.84Z"/></svg>